<?xml version="1.0" encoding="utf-8"?>
<!-- Generator: Adobe Illustrator 16.0.0, SVG Export Plug-In . SVG Version: 6.00 Build 0)  -->
<!DOCTYPE svg PUBLIC "-//W3C//DTD SVG 1.1//EN" "http://www.w3.org/Graphics/SVG/1.1/DTD/svg11.dtd">
<svg version="1.1" xmlns="http://www.w3.org/2000/svg" xmlns:xlink="http://www.w3.org/1999/xlink" x="0px" y="0px" width="640px"
	 height="360px" viewBox="0 0 640 360" enable-background="new 0 0 640 360" xml:space="preserve">
<g id="Ebene_1" display="none">
	<path display="inline" fill-rule="evenodd" clip-rule="evenodd" fill="#1D1D1B" d="M139.685,176.43H160.8v4.295
		c0,3.801-0.816,7.082-2.452,9.832c-1.638,2.754-3.938,4.842-6.912,6.273c-2.975,1.424-6.416,2.141-10.319,2.141
		c-4.013,0-7.636-0.734-10.849-2.209c-3.221-1.463-5.733-3.613-7.549-6.451c-1.816-2.83-2.719-6.186-2.719-10.055
		c0-2.728,0.442-5.259,1.338-7.593c0.895-2.335,2.232-4.381,4.013-6.119c1.773-1.747,3.98-3.103,6.615-4.065
		c2.632-0.962,5.631-1.449,8.988-1.449c2.207,0,4.337,0.231,6.382,0.683c2.055,0.451,4.04,1.329,5.966,2.616
		c1.934,1.296,3.597,3.11,4.994,5.437l-10.439,5.225c-0.612-1.159-1.475-2.046-2.59-2.659c-1.107-0.622-2.378-0.929-3.802-0.929
		c-1.669,0-3.093,0.383-4.277,1.158c-1.185,0.769-2.079,1.825-2.676,3.154c-0.604,1.338-0.911,2.838-0.911,4.49
		c0,1.653,0.324,3.136,0.962,4.474c0.632,1.33,1.543,2.377,2.728,3.137c1.176,0.758,2.556,1.135,4.124,1.135
		c1.595,0,2.94-0.395,4.049-1.168c1.106-0.775,1.687-1.824,1.736-3.129h-7.515V176.43L139.685,176.43z M165.658,197.896v-35.793
		h25.053v10.372h-10.737v3.025h9.664v8.591h-9.664v3.432h10.737v10.373H165.658L165.658,197.896z M196.079,197.896v-35.793h19.83
		c2.268,0,4.397,0.375,6.4,1.126c2.002,0.75,3.647,2.002,4.95,3.758c1.296,1.755,1.943,4.031,1.943,6.826
		c0,2.437-0.537,4.473-1.618,6.108c-1.083,1.639-2.787,2.977-5.122,4.014l9.051,13.961h-16.413l-4.705-11.096v11.096H196.079
		L196.079,197.896z M210.396,171.409v6.802h1.433c2.521,0,3.783-1.142,3.783-3.418c0-2.259-1.262-3.384-3.783-3.384H210.396
		L210.396,171.409z M234.741,197.896v-35.793h19.831c2.267,0,4.397,0.375,6.398,1.126c2.003,0.75,3.648,2.002,4.952,3.758
		c1.295,1.755,1.942,4.031,1.942,6.826c0,2.437-0.536,4.473-1.62,6.108c-1.081,1.639-2.786,2.977-5.119,4.014l9.049,13.961h-16.412
		l-4.705-11.096v11.096H234.741L234.741,197.896z M249.058,171.409v6.802h1.433c2.522,0,3.783-1.142,3.783-3.418
		c0-2.259-1.261-3.384-3.783-3.384H249.058L249.058,171.409z M280.92,197.896v-14.881l-11.094-20.912h14.314l4.458,10.542
		l4.132-10.542h13.602l-11.096,20.912v14.881H280.92L280.92,197.896z M353.268,177.844l-5.674,20.053h-13.447l-10.584-35.793h15.391
		l3.834,17.539l4.6-17.539h11.76l4.602,17.539l3.836-17.539h15.391l-10.584,35.793h-13.447L353.268,177.844L353.268,177.844z
		 M385.836,197.896v-35.793h25.055v10.372h-10.738v3.025h9.664v8.591h-9.664v3.432h10.738v10.373H385.836L385.836,197.896z
		 M416.26,197.896v-35.793h20.195c2.488,0,4.518,0.341,6.094,1.023c1.568,0.683,2.727,1.524,3.475,2.53
		c0.742,0.998,1.229,1.978,1.449,2.924c0.223,0.938,0.334,1.816,0.334,2.625c0,1.771-0.59,3.322-1.766,4.652
		c-1.176,1.338-2.666,2.274-4.465,2.813v0.103c1.398,0.237,2.703,0.758,3.912,1.542c1.211,0.791,2.182,1.841,2.914,3.144
		c0.725,1.305,1.092,2.787,1.092,4.467c0,1.645-0.393,3.221-1.17,4.73c-0.783,1.516-2.076,2.76-3.893,3.756
		c-1.807,0.988-4.143,1.484-6.996,1.484H416.26L416.26,197.896z M430.584,175.696h1.322c2.113,0,3.168-0.826,3.168-2.487
		c0-1.68-1.055-2.516-3.168-2.516h-1.322V175.696L430.584,175.696z M430.584,189.307h1.73c2.395,0,3.588-0.904,3.588-2.713
		c0-1.771-1.193-2.658-3.588-2.658h-1.73V189.307L430.584,189.307z M454.145,197.896v-35.793h25.057v10.372h-10.74v3.025h9.664
		v8.591h-9.664v3.432h10.74v10.373H454.145L454.145,197.896z M484.566,197.896v-35.793h19.83c2.268,0,4.398,0.375,6.4,1.126
		c2.004,0.75,3.646,2.002,4.951,3.758c1.295,1.755,1.943,4.031,1.943,6.826c0,2.437-0.537,4.473-1.619,6.108
		c-1.082,1.639-2.785,2.977-5.121,4.014L520,197.896h-16.412l-4.703-11.096v11.096H484.566L484.566,197.896z M498.885,171.409v6.802
		h1.432c2.523,0,3.783-1.142,3.783-3.418c0-2.259-1.26-3.384-3.783-3.384H498.885L498.885,171.409z"/>
</g>
<g id="Ebene_3">
	<g>
		<path fill-rule="evenodd" clip-rule="evenodd" fill="#AD0F0A" d="M510.986,171.622c-5.313,0-9.088-3.929-9.088-9.243
			c0-5.546,4.158-9.166,9.088-9.166c4.777,0,9.014,3.62,9.014,9.166S515.764,171.622,510.986,171.622L510.986,171.622z
			 M510.986,154.831c-4.004,0-7.086,3.081-7.086,7.548c0,4.236,2.697,7.625,7.086,7.625c3.93,0,7.01-3.08,7.01-7.625
			C517.996,157.912,514.916,154.831,510.986,154.831L510.986,154.831z M509.139,167.693h-1.693v-10.244h3.85
			c2.465,0,3.775,0.925,3.775,3.005c0,1.771-1.154,2.541-2.695,2.772l2.85,4.467h-1.85l-2.695-4.391h-1.541V167.693L509.139,167.693
			z M510.986,161.917c1.313,0,2.389-0.154,2.389-1.617c0-1.232-1.232-1.387-2.232-1.387h-2.004v3.004H510.986L510.986,161.917z
			 M236.857,246.875c-40.823,0.461-55.227-40.746-54.148-67.011c1.694-42.21,27.189-69.322,62.006-66.549
			c2.002,0.153,3.081,0.77,2.927,2.078c-0.078,1.387-1.694,1.387-4.237,1.464c-33.506,0.847-44.981,34.585-44.597,63.7
			c0.309,32.04,13.018,60.386,38.05,60.153c22.105-0.229,31.579-27.496,33.119-53.223c1.849-30.963-8.626-59.462-25.493-58.923
			c-18.718,0.616-24.957,26.804-23.569,43.442c1.617,20.102,15.173,29.576,18.485,31.195c1.617,0.846,2.695,1.385,2.157,2.771
			c-0.54,1.232-1.387,1.387-4.006,0.693c-4.698-1.387-25.572-9.166-27.421-35.2c-2.002-28.037,13.402-48.525,35.2-48.833
			c21.258-0.231,39.821,22.877,38.203,63.852C280.992,226.541,260.118,246.645,236.857,246.875L236.857,246.875z M179.013,240.867
			c4.929,0.307,7.934-2.697,7.934-7.318c0-4.545-3.697-8.01-7.549-8.01c-4.775,0-7.78,4.313-7.549,8.242
			C172.003,236.553,174.16,240.559,179.013,240.867L179.013,240.867z M343.768,169.312c4.467,0.23,7.164-2.619,7.24-7.087
			c0-4.39-3.389-7.701-6.932-7.701c-4.314,0-7.01,4.082-6.779,7.933C337.451,165.152,339.377,169.003,343.768,169.312
			L343.768,169.312z M137.958,196.654c-2.388-4.313-2.079-12.786,5.16-16.713c7.163-4.006,17.022,0.385,14.635,10.783
			c-0.616,2.926,2.696,3.621,3.699,1.848c2.311-4.313,2.927-11.938-1.773-18.023c-4.391-5.623-14.942-7.702-22.722-4.005
			c-10.63,4.698-15.405,19.333-8.164,29.269c6.623,9.012,28.189,7.625,25.187,22.799c-2.927,15.098-33.12,14.404-27.575-2.617
			c0.771-2.234-3.004-4.236-4.621-1.695c-2.157,3.543-4.314,14.018,6.162,20.18c11.245,6.625,38.127,4.084,39.513-15.328
			C168.614,206.514,143.503,206.82,137.958,196.654L137.958,196.654z M505.674,237.555c-6.086,6.24-37.203,21.875-26.574-40.9
			c1.002-6.316-6.779-4.391-6.779-4.391c-0.846,5.855-4.773,51.992-31.117,51.684c-16.869-0.461-25.418-16.02-26.266-29.654
			c-3.389-2.156-7.238-7.549-9.859-11.707c-1.154,7.779-5.236,40.822-18.639,40.746c-4.777,0-13.711-4.854-16.791-20.412
			c-1.156,9.475-6.549,21.336-16.561,20.412c-8.24-0.693-15.33-9.783-15.945-22.568v-0.076c-0.924,3.311-4.006,19.639-18.256,22.184
			c-12.477,2.232-22.875-8.551-25.956-21.801c0,0-7.163,0.617-9.166,0.309c-1.617-0.309-2.08-3.004-0.693-3.313
			c2.851-0.537,6.316-1.232,8.704-1.924c-6.008-30.888-2.233-92.199,21.182-93.123c23.801-1.001,15.559,84.648-9.859,95.586
			c0.924,4.699,4.391,18.641,15.174,17.717c10.092-0.848,14.174-12.631,16.482-22.414c2.234-9.781,1.928-22.336,2.467-28.038
			c0.617-5.698,12.324-5.929,12.246,0.694c-0.154,9.09-7.934,48.91,6.855,50.221c8.24,0.693,11.322-13.25,12.016-20.643
			c-1.311-8.936-1.539-16.484-1.154-27.576c0.23-8.395,13.17-8.24,12.785-0.846c-0.539,10.166-1.387,40.436,6.471,44.828
			c7.779,4.389,12.17-31.119,13.17-39.668c-3.621-9.243-5.313-22.568-1.615-27.882c1.309-1.85,3.232-2.774,4.928-2.774
			c0.848,0,3.773,0.694,5.084,4.699c2.078,6.316-0.463,19.255-1.078,23.568c1.078,4.314,3.543,13.635,7.625,18.178
			c-0.076-10.398,4.775-35.584,19.41-39.975c26.727-8.011,32.043,61.232-7.164,50.836c0.926,8.473,4.469,17.947,14.02,19.102
			c22.799,2.158,24.107-45.676,24.264-49.295c0.23-4.93-3.006-8.01-1.928-15.02c1.232-8.396,10.322-6.778,10.938-0.848
			c0.387,3.467,0,6.701-0.152,8.474c18.1-7.396,21.182,2.387,18.256,13.71c-15.176,57.535,9.473,41.131,11.705,39.82
			C505.289,234.781,506.674,236.553,505.674,237.555L505.674,237.555z M302.405,212.598c19.642-11.629,23.954-81.799,12.478-80.259
			C299.555,134.343,299.632,201.199,302.405,212.598L302.405,212.598z M426.492,215.834c27.576,7.316,26.111-41.439,12.246-36.972
			C427.955,182.329,426.029,211.137,426.492,215.834L426.492,215.834z"/>
	</g>
</g>
<g id="Ebene_2" display="none">
	<g id="layer1" transform="translate(-252.07133,-146.45262)" display="inline">
		<g id="g2537" transform="translate(0.9991887,1.0007498)">
			<path id="path59" d="M371.072,360.585h112.64v4.047h-112.64V360.585z"/>
			<path id="path61" d="M524.018,360.585h247.054v4.047H524.018V360.585z"/>
			<path id="path63" d="M623.613,307.414c29.148,2.429,37.699-13.045,37.609-21.413h19.883
				c-0.094,24.561-38.238,28.789-57.492,24.471V307.414z"/>
			<path id="path65" d="M414.527,330.895c0.359-4.586,2.879-8.007,7.828-8.007c4.947,0,6.928,3.688,7.197,8.007H414.527z
				 M435.491,342.051c-3.33,1.889-7.018,3.418-11.247,3.418c-5.489,0-9.357-3.061-9.717-8.547h23.481
				c0-11.876-3.598-20.515-16.192-20.515c-10.528,0-15.746,8.099-15.746,17.907c0,11.154,6.479,17.633,17.724,17.633
				c4.77,0,8.458-0.898,11.697-2.701V342.051z"/>
			<path id="path67" d="M504.406,344.03c-4.948,0-7.288-5.488-7.288-9.984c0-5.041,1.889-10.438,7.646-10.438
				c5.038,0,7.198,4.591,7.198,10.255C511.963,339.352,509.803,344.03,504.406,344.03z M512.414,317.669v4.5h-0.182
				c-2.34-3.778-5.757-5.219-10.076-5.219c-9.896,0-14.035,9.086-14.035,17.096c0,8.814,3.778,16.641,13.497,16.641
				c4.768,0,8.636-2.426,10.254-5.217h0.091c0,5.67-0.451,12.775-9.896,12.775c-2.698,0-7.018-1.439-9.625-2.881l-0.722,7.289
				c4.138,1.709,8.006,2.25,11.427,2.25c13.854,0,17.452-8.459,17.452-17.455v-29.779H512.414z"/>
			<path id="path69" d="M539.043,330.895c0.451-4.586,2.969-8.007,7.918-8.007c4.947,0,6.927,3.688,7.197,8.007H539.043z
				 M560.097,342.051c-3.331,1.889-7.018,3.418-11.338,3.418c-5.486,0-9.265-3.061-9.716-8.547h23.571
				c0-11.876-3.599-20.515-16.195-20.515c-10.615,0-15.831,8.099-15.831,17.907c0,11.154,6.566,17.633,17.813,17.633
				c4.769,0,8.457-0.898,11.696-2.701V342.051z"/>
			<path id="path71" d="M447.995,350.686h8.639v-16.193c0-4.227,1.348-10.886,7.556-10.886c5.489,0,5.577,5.397,5.577,9.448v17.631
				h8.549v-20.871c0-7.379-3.42-12.865-11.156-12.865c-4.497,0-8.188,1.44-10.886,5.219h-0.091v-4.5h-8.188V350.686z"/>
			<path id="path73" d="M572.062,350.686h8.635v-48.043h-8.635V350.686z"/>
			<path id="path75" d="M593.476,350.686h8.635v-16.193c0-4.227,1.348-10.886,7.557-10.886c5.49,0,5.578,5.397,5.578,9.448v17.631
				h8.547v-20.871c0-7.379-3.418-12.865-11.246-12.865c-4.408,0-8.188,1.979-10.346,5.219h-0.09v-19.525h-8.635V350.686z"/>
			<path id="path77" d="M676.785,350.686h8.545v-12.145c0-4.68,0-13.404,7.018-13.404c1.531,0,3.061,0.271,3.871,0.719v-8.726
				c-0.902-0.181-1.803-0.181-2.699-0.181c-5.129,0-8.637,5.129-8.998,8.188h-0.09v-7.469h-7.646V350.686z"/>
			<path id="path79" d="M703.324,350.686h8.549v-16.193c0-4.227,1.35-10.886,7.555-10.886c5.49,0,5.58,5.397,5.58,9.448v17.631
				h8.637v-20.871c0-7.379-3.42-12.865-11.248-12.865c-4.496,0-8.184,1.44-10.885,5.219h-0.088v-4.5h-8.1V350.686z"/>
			<path id="path81" d="M633.06,336.833c0,10.076,6.117,15.205,15.473,15.205c12.236,0,18.984-9.268,18.984-20.785
				c0-9.355-5.938-14.845-15.025-14.845C639.988,316.408,633.06,325.496,633.06,336.833z M639.719,337.284
				c0-7.018,4.137-15.837,12.506-15.837c5.666,0,8.635,4.769,8.635,9.806c0,7.65-5.309,15.656-12.414,15.656
				C642.506,346.909,639.719,342.68,639.719,337.284"/>
		</g>
	</g>
</g>
</svg>
